<svg width="400" height="300" viewBox="0 0 400 300" fill="none" xmlns="http://www.w3.org/2000/svg">
  <!-- Background Circle -->
  <circle cx="200" cy="150" r="120" fill="url(#gradient1)" opacity="0.1"/>
  
  <!-- Main Brain Icon -->
  <g transform="translate(200, 150)">
    <!-- Brain Base -->
    <path d="M-30 -20 Q-40 -30 -30 -40 Q-20 -50 -10 -40 Q0 -30 10 -40 Q20 -50 30 -40 Q40 -30 30 -20 Q20 -10 10 -20 Q0 -30 -10 -20 Q-20 -10 -30 -20 Z" fill="url(#gradient2)"/>
    
    <!-- Brain Details -->
    <circle cx="-15" cy="-25" r="3" fill="white" opacity="0.8"/>
    <circle cx="15" cy="-25" r="3" fill="white" opacity="0.8"/>
    <circle cx="0" cy="-15" r="2" fill="white" opacity="0.6"/>
    <circle cx="-10" cy="-10" r="2" fill="white" opacity="0.6"/>
    <circle cx="10" cy="-10" r="2" fill="white" opacity="0.6"/>
  </g>
  
  <!-- Floating Icons -->
  <g transform="translate(80, 80)">
    <!-- Bot Icon -->
    <rect x="-15" y="-20" width="30" height="40" rx="5" fill="url(#gradient3)"/>
    <circle cx="-5" cy="-10" r="3" fill="white"/>
    <circle cx="5" cy="-10" r="3" fill="white"/>
    <rect x="-8" y="5" width="16" height="8" rx="2" fill="white"/>
  </g>
  
  <g transform="translate(320, 80)">
    <!-- Message Icon -->
    <path d="M-20 -15 L20 -15 L20 15 L10 5 L-10 5 L-20 15 Z" fill="url(#gradient4)"/>
    <circle cx="-8" cy="-5" r="2" fill="white"/>
    <circle cx="0" cy="-5" r="2" fill="white"/>
    <circle cx="8" cy="-5" r="2" fill="white"/>
  </g>
  
  <g transform="translate(80, 220)">
    <!-- Trending Up Icon -->
    <path d="M-15 10 L-5 -10 L5 -5 L15 -15" stroke="url(#gradient5)" stroke-width="3" fill="none" stroke-linecap="round"/>
    <circle cx="-15" cy="10" r="3" fill="url(#gradient5)"/>
    <circle cx="-5" cy="-10" r="3" fill="url(#gradient5)"/>
    <circle cx="5" cy="-5" r="3" fill="url(#gradient5)"/>
    <circle cx="15" cy="-15" r="3" fill="url(#gradient5)"/>
  </g>
  
  <g transform="translate(320, 220)">
    <!-- Graduation Cap -->
    <path d="M-20 -10 L20 -10 L10 -20 L-10 -20 Z" fill="url(#gradient6)"/>
    <rect x="-15" y="-10" width="30" height="5" fill="url(#gradient6)"/>
    <circle cx="0" cy="-5" r="2" fill="white"/>
  </g>
  
  <!-- Connection Lines -->
  <path d="M120 100 Q200 50 280 100" stroke="url(#gradient7)" stroke-width="2" fill="none" opacity="0.3"/>
  <path d="M120 200 Q200 250 280 200" stroke="url(#gradient7)" stroke-width="2" fill="none" opacity="0.3"/>
  <path d="M100 120 Q150 150 100 180" stroke="url(#gradient7)" stroke-width="2" fill="none" opacity="0.3"/>
  <path d="M300 120 Q250 150 300 180" stroke="url(#gradient7)" stroke-width="2" fill="none" opacity="0.3"/>
  
  <!-- Animated Dots -->
  <circle cx="150" cy="120" r="2" fill="url(#gradient8)">
    <animate attributeName="opacity" values="0.3;1;0.3" dur="2s" repeatCount="indefinite"/>
  </circle>
  <circle cx="250" cy="120" r="2" fill="url(#gradient8)">
    <animate attributeName="opacity" values="0.3;1;0.3" dur="2s" repeatCount="indefinite" begin="0.5s"/>
  </circle>
  <circle cx="150" cy="180" r="2" fill="url(#gradient8)">
    <animate attributeName="opacity" values="0.3;1;0.3" dur="2s" repeatCount="indefinite" begin="1s"/>
  </circle>
  <circle cx="250" cy="180" r="2" fill="url(#gradient8)">
    <animate attributeName="opacity" values="0.3;1;0.3" dur="2s" repeatCount="indefinite" begin="1.5s"/>
  </circle>
  
  <!-- Gradients -->
  <defs>
    <linearGradient id="gradient1" x1="0%" y1="0%" x2="100%" y2="100%">
      <stop offset="0%" style="stop-color:#3B82F6;stop-opacity:1" />
      <stop offset="100%" style="stop-color:#1E40AF;stop-opacity:1" />
    </linearGradient>
    <linearGradient id="gradient2" x1="0%" y1="0%" x2="100%" y2="100%">
      <stop offset="0%" style="stop-color:#10B981;stop-opacity:1" />
      <stop offset="100%" style="stop-color:#059669;stop-opacity:1" />
    </linearGradient>
    <linearGradient id="gradient3" x1="0%" y1="0%" x2="100%" y2="100%">
      <stop offset="0%" style="stop-color:#8B5CF6;stop-opacity:1" />
      <stop offset="100%" style="stop-color:#7C3AED;stop-opacity:1" />
    </linearGradient>
    <linearGradient id="gradient4" x1="0%" y1="0%" x2="100%" y2="100%">
      <stop offset="0%" style="stop-color:#F59E0B;stop-opacity:1" />
      <stop offset="100%" style="stop-color:#D97706;stop-opacity:1" />
    </linearGradient>
    <linearGradient id="gradient5" x1="0%" y1="0%" x2="100%" y2="100%">
      <stop offset="0%" style="stop-color:#EF4444;stop-opacity:1" />
      <stop offset="100%" style="stop-color:#DC2626;stop-opacity:1" />
    </linearGradient>
    <linearGradient id="gradient6" x1="0%" y1="0%" x2="100%" y2="100%">
      <stop offset="0%" style="stop-color:#06B6D4;stop-opacity:1" />
      <stop offset="100%" style="stop-color:#0891B2;stop-opacity:1" />
    </linearGradient>
    <linearGradient id="gradient7" x1="0%" y1="0%" x2="100%" y2="100%">
      <stop offset="0%" style="stop-color:#3B82F6;stop-opacity:1" />
      <stop offset="100%" style="stop-color:#1E40AF;stop-opacity:1" />
    </linearGradient>
    <linearGradient id="gradient8" x1="0%" y1="0%" x2="100%" y2="100%">
      <stop offset="0%" style="stop-color:#10B981;stop-opacity:1" />
      <stop offset="100%" style="stop-color:#059669;stop-opacity:1" />
    </linearGradient>
  </defs>
</svg>
